<?xml version="1.0" encoding="UTF-8" standalone="no"?>
<!-- Created with Inkscape (http://www.inkscape.org/) -->

<svg
   version="1.1"
   id="svg75"
   width="512"
   height="512"
   viewBox="0 0 512 512"
   sodipodi:docname="add.svg"
   inkscape:version="1.2.2 (732a01da63, 2022-12-09, custom)"
   xmlns:inkscape="http://www.inkscape.org/namespaces/inkscape"
   xmlns:sodipodi="http://sodipodi.sourceforge.net/DTD/sodipodi-0.dtd"
   xmlns="http://www.w3.org/2000/svg"
   xmlns:svg="http://www.w3.org/2000/svg">
  <defs
     id="defs79" />
  <sodipodi:namedview
     id="namedview77"
     pagecolor="#ffffff"
     bordercolor="#000000"
     borderopacity="0.25"
     inkscape:showpageshadow="2"
     inkscape:pageopacity="0.0"
     inkscape:pagecheckerboard="0"
     inkscape:deskcolor="#d1d1d1"
     showgrid="false"
     inkscape:zoom="1.2363281"
     inkscape:cx="255.59558"
     inkscape:cy="256"
     inkscape:window-width="1600"
     inkscape:window-height="836"
     inkscape:window-x="0"
     inkscape:window-y="27"
     inkscape:window-maximized="1"
     inkscape:current-layer="g81" />
  <g
     inkscape:groupmode="layer"
     inkscape:label="Image"
     id="g81">
    <path
       style="fill:#000000"
       d="M 239.5,489.99484 C 181.39111,485.68229 128.26081,460.88561 87.847453,419.2164 52.409725,382.67744 30.579077,337.71718 23.406438,286.5 21.421164,272.32389 21.169313,242.03059 22.924241,228.5 34.732058,137.46105 94.570326,63.593857 180.41844,34.081707 205.36083,25.50722 228.34593,21.754714 256,21.742399 c 23.71463,-0.01056 43.40245,2.671809 64.51415,8.78974 79.43544,23.019488 139.98794,84.774331 162.04823,165.265891 11.95407,43.61693 10.13191,93.58602 -4.99196,136.89456 C 456.21741,393.83885 411.03803,443.41561 352.82661,469.57793 317.52507,485.44372 276.8695,492.76822 239.5,489.99484 Z m 24.28212,-107.54789 c 4.37329,-1.82683 8.73333,-5.74909 11.05716,-9.94695 1.45798,-2.63377 1.72176,-8.61553 2.16072,-49 l 0.5,-46 46,-0.5 c 50.33569,-0.54713 48.70069,-0.34803 54.69695,-6.66072 7.62912,-8.03173 7.62912,-20.64683 0,-28.67856 C 372.20069,235.34803 373.83569,235.54713 323.5,235 l -46,-0.5 -0.5,-46 c -0.54713,-50.33569 -0.34803,-48.70069 -6.66072,-54.69695 -8.03173,-7.62912 -20.64683,-7.62912 -28.67856,0 -6.31269,5.99626 -6.11359,4.36126 -6.66072,54.69695 l -0.5,46 -46,0.5 c -50.33569,0.54713 -48.70069,0.34803 -54.69695,6.66072 -7.62912,8.03173 -7.62912,20.64683 0,28.67856 5.99626,6.31269 4.36126,6.11359 54.69695,6.66072 l 46,0.5 0.5,46 c 0.54713,50.3359 0.34835,48.70358 6.66072,54.69484 5.89921,5.5991 14.80074,7.31013 22.1214,4.25211 z"
       id="path193" />
  </g>
</svg>
