<?xml version="1.0" encoding="UTF-8" standalone="no"?>
<!-- Created with Inkscape (http://www.inkscape.org/) -->

<svg
   version="1.1"
   id="svg232"
   width="682.66669"
   height="682.66669"
   viewBox="0 0 682.66669 682.66669"
   sodipodi:docname="minus.svg"
   inkscape:version="1.2.2 (732a01da63, 2022-12-09, custom)"
   xmlns:inkscape="http://www.inkscape.org/namespaces/inkscape"
   xmlns:sodipodi="http://sodipodi.sourceforge.net/DTD/sodipodi-0.dtd"
   xmlns="http://www.w3.org/2000/svg"
   xmlns:svg="http://www.w3.org/2000/svg">
  <defs
     id="defs236" />
  <sodipodi:namedview
     id="namedview234"
     pagecolor="#ffffff"
     bordercolor="#000000"
     borderopacity="0.25"
     inkscape:showpageshadow="2"
     inkscape:pageopacity="0.0"
     inkscape:pagecheckerboard="0"
     inkscape:deskcolor="#d1d1d1"
     showgrid="false"
     inkscape:zoom="0.98144528"
     inkscape:cx="284.27464"
     inkscape:cy="341.8428"
     inkscape:window-width="1600"
     inkscape:window-height="836"
     inkscape:window-x="0"
     inkscape:window-y="27"
     inkscape:window-maximized="1"
     inkscape:current-layer="g238" />
  <g
     inkscape:groupmode="layer"
     inkscape:label="Image"
     id="g238">
    <path
       style="fill:#000000;stroke-width:1.33333"
       d="M 310.00001,681.25817 C 228.31062,672.81568 158.28467,639.63688 100.59395,582.04006 71.228489,552.72241 52.807359,527.12452 35.31824,491.33335 c -16.451978,-33.66868 -25.9033175,-63.60906 -31.5672107,-100 -4.16052641,-26.73171 -4.16052641,-73.2683 0,-100.00001 C 15.312227,217.05175 47.466603,153.7213 100.59395,100.59395 c 29.38653,-29.386533 54.99851,-47.811164 90.73939,-65.27571 33.66868,-16.451978 63.60906,-25.9033175 100,-31.5672107 26.76215,-4.16526553 73.28558,-4.16141058 100.00001,0.00828 36.95145,5.7675325 66.38923,15.0520867 100,31.5395967 35.92721,17.623819 61.39322,35.948872 90.73939,65.295034 29.34616,29.34617 47.67121,54.81218 65.29504,90.73939 16.32582,33.28116 25.8746,63.54877 31.54788,100.00001 4.16052,26.7317 4.16052,73.26829 0,100 -11.53192,74.09346 -43.85013,137.74661 -96.84292,190.73939 -29.34617,29.34616 -54.81218,47.67122 -90.73939,65.29505 -33.20631,16.28909 -64.22388,26.07217 -99.58858,31.41065 -20.54749,3.10175 -63.2052,4.39577 -81.74476,2.47973 z M 504.12364,366.23099 c 3.232,-1.70631 7.67638,-5.65799 9.87638,-8.78152 3.62009,-5.13978 4,-6.67043 4,-16.11613 0,-9.44569 -0.37991,-10.97634 -4,-16.11612 -2.2,-3.12353 -6.64438,-7.07521 -9.87638,-8.78152 l -5.87638,-3.10236 H 341.33334 184.41943 l -5.87638,3.10236 c -3.232,1.70631 -7.67638,5.65799 -9.87638,8.78152 -3.62009,5.13978 -4,6.67043 -4,16.11612 0,9.4457 0.37991,10.97635 4,16.11613 2.2,3.12353 6.64438,7.07521 9.87638,8.78152 l 5.87638,3.10236 h 156.91391 156.91392 z"
       id="path242" />
  </g>
</svg>
